<svg width="478" height="455" viewBox="0 0 478 455" fill="none" xmlns="http://www.w3.org/2000/svg">
<path d="M143.5 24.5H143.734L143.884 24.3201L163.734 0.5H238.5H313.266L333.116 24.3201L333.266 24.5H333.5H477.5V438.793L461.793 454.5H0.5V40.2071L16.2071 24.5H143.5Z" fill="black" stroke="#113C57"/>
<path d="M53.861 15.5H150L142.054 25.5H44L53.861 15.5Z" fill="#113C57"/>
<path d="M421.139 15.5H325L332.946 25.5H431L421.139 15.5Z" fill="#113C57"/>
<path d="M136 26H144.5L166 0H158L136 26Z" fill="#40E9F1"/>
<path d="M341 26H332.5L311 0H319L341 26Z" fill="#40E9F1"/>
<path d="M49.1464 304.854L49.2929 305H49.5H239H428.5H428.707L428.854 304.854L448.707 285H477.5V454H0.5V285H29.2929L49.1464 304.854Z" fill="#113C57" fill-opacity="0.4" stroke="#113C57"/>
<path d="M421 306.5H429.5L451.5 284.5H443.5L421 306.5Z" fill="#40E9F1"/>
<path d="M57.5 306.5H49L27 284.5H35L57.5 306.5Z" fill="#40E9F1"/>
</svg>
