<svg width="34" height="41" viewBox="0 0 34 41" fill="none" xmlns="http://www.w3.org/2000/svg">
<path d="M29.9542 18.2713C30.7636 18.5232 31.5262 17.7921 31.2208 16.9816C28.9509 10.9587 22.2325 8.49121 17.1323 8.49121C12.0222 8.49121 5.15415 11.0385 3.03207 17.0192C2.74637 17.8244 3.507 18.5314 4.30431 18.2803L16.5267 14.431C16.8795 14.3199 17.2565 14.3193 17.6097 14.4292L29.9542 18.2713Z" fill="url(#paint0_linear_908_53)"/>
<path d="M22.9071 3.39123C22.9668 3.49524 22.8878 3.62382 22.7703 3.62382C20.3909 3.62382 18.4566 5.55997 18.4112 7.96588C17.5965 7.80954 16.7523 7.79779 15.9183 7.9422C15.8607 5.54728 13.9313 3.62382 11.5597 3.62382C11.4421 3.62382 11.363 3.49514 11.4228 3.39105C12.5746 1.38621 14.7149 0.0390625 17.1649 0.0390625C19.615 0.0390625 21.7553 1.38629 22.9071 3.39123Z" fill="url(#paint1_linear_908_53)"/>
<path d="M2.91256 19.4306L16.5368 15.1838C16.8875 15.0745 17.2618 15.0742 17.6127 15.1829L31.3225 19.4327C32.4674 19.7876 33.2508 20.8714 33.2508 22.1004V34.9046C33.1977 38.03 30.4659 40.5351 27.426 40.5351H22.3768C21.8777 40.5351 21.4735 40.1202 21.4735 39.6072V35.1179C21.4735 33.3502 22.4914 31.7503 24.0665 31.0421C26.178 30.0929 28.6758 28.8089 29.1456 26.2323C29.2973 25.4007 28.7697 24.5985 27.9626 24.4337C25.9218 24.0168 23.6594 24.1778 21.7462 25.0573C19.5743 26.0557 19.0061 27.7165 18.7958 29.947L18.5409 32.3498C18.463 33.0843 17.7931 33.6469 17.0746 33.6469C16.3314 33.6469 15.7741 33.0651 15.6935 32.3053L15.4433 29.947C15.2631 28.0365 14.9365 26.1806 13.0148 25.2972C10.8228 24.2895 8.61992 23.9549 6.27649 24.4337C5.46942 24.5985 4.9418 25.4007 5.09344 26.2323C5.56735 28.8313 8.04562 30.0859 10.1726 31.0421C11.7477 31.7503 12.7656 33.3502 12.7656 35.1179V39.6064C12.7656 40.1194 12.3616 40.5351 11.8625 40.5351H6.81311C3.77316 40.5351 1.04137 38.03 0.988281 34.9046V22.0971C0.988281 20.8697 1.76973 19.7868 2.91256 19.4306Z" fill="url(#paint2_linear_908_53)"/>
<defs>
<linearGradient id="paint0_linear_908_53" x1="16.8034" y1="-2.14775" x2="31.66" y2="40.4802" gradientUnits="userSpaceOnUse">
<stop stop-color="#F5B75E"/>
<stop offset="1" stop-color="#FF9600"/>
</linearGradient>
<linearGradient id="paint1_linear_908_53" x1="16.8034" y1="-2.14774" x2="31.66" y2="40.4802" gradientUnits="userSpaceOnUse">
<stop stop-color="#F5B75E"/>
<stop offset="1" stop-color="#FF9600"/>
</linearGradient>
<linearGradient id="paint2_linear_908_53" x1="16.8032" y1="-2.14798" x2="31.6598" y2="40.48" gradientUnits="userSpaceOnUse">
<stop stop-color="#F5B75E"/>
<stop offset="1" stop-color="#FF9600"/>
</linearGradient>
</defs>
</svg>
