<svg width="24" height="24" viewBox="0 0 24 24" fill="none" xmlns="http://www.w3.org/2000/svg">
  <path fill-rule="evenodd" clip-rule="evenodd"
    d="M17 7H18C19.6569 7 21 8.34315 21 10V18C21 19.6569 19.6569 21 18 21H10C8.34315 21 7 19.6569 7 18V17H6C4.34315 17 3 15.6569 3 14V6C3 4.34315 4.34315 3 6 3H14C15.6569 3 17 4.34315 17 6V7ZM14 4.5H6C5.17157 4.5 4.5 5.17157 4.5 6V14C4.5 14.8284 5.17157 15.5 6 15.5H7V10C7 8.34315 8.34315 7 10 7H15.5V6C15.5 5.17157 14.8284 4.5 14 4.5ZM8.5 10C8.5 9.17157 9.17157 8.5 10 8.5H18C18.8284 8.5 19.5 9.17157 19.5 10V18C19.5 18.8284 18.8284 19.5 18 19.5H10C9.17157 19.5 8.5 18.8284 8.5 18V10Z"
    fill="currentColor" />
</svg>