<svg width="25" height="25" viewBox="0 0 25 25" fill="none" xmlns="http://www.w3.org/2000/svg">
<g clip-path="url(#clip0_121_16)">
<path d="M23.9681 1.56024C23.7703 1.36256 23.5359 1.2634 23.265 1.2634C22.9942 1.2634 22.7601 1.36256 22.5619 1.56024L20.5307 3.57616C19.4162 2.52396 18.14 1.70867 16.7026 1.13068C15.2653 0.552638 13.7857 0.263672 12.2648 0.263672C9.40014 0.263672 6.90025 1.13073 4.76475 2.86524C2.62919 4.59953 1.223 6.86233 0.545898 9.65419V9.76349C0.545898 9.89888 0.595318 10.0162 0.694322 10.115C0.793326 10.214 0.910444 10.2634 1.04584 10.2634H4.15518C4.38444 10.2634 4.54058 10.1436 4.62399 9.90414C5.06143 8.86255 5.33737 8.2532 5.45208 8.07604C6.18117 6.88855 7.14992 5.95619 8.35833 5.27909C9.56684 4.60205 10.8689 4.26339 12.2646 4.26339C14.3586 4.26339 16.1762 4.97699 17.718 6.40409L15.5614 8.56023C15.364 8.75818 15.2647 8.99269 15.2647 9.26354C15.2647 9.53434 15.3639 9.76874 15.5614 9.96664C15.7596 10.1646 15.994 10.2635 16.2649 10.2635H23.265C23.5358 10.2635 23.7703 10.1646 23.9681 9.96664C24.1659 9.76874 24.2648 9.53439 24.2648 9.26354V2.26339C24.2648 1.99254 24.1665 1.75825 23.9681 1.56024Z" fill="currentColor"/>
<path d="M23.3739 14.2634H20.3739C20.1447 14.2634 19.9884 14.383 19.9053 14.6227C19.468 15.6644 19.1918 16.2735 19.0773 16.4506C18.348 17.6379 17.3792 18.5705 16.1711 19.2476C14.9626 19.9248 13.6605 20.2631 12.2647 20.2631C11.2544 20.2631 10.2803 20.0758 9.34294 19.7009C8.40545 19.3256 7.56679 18.7942 6.8273 18.1067L8.968 15.9661C9.16584 15.7684 9.26485 15.5337 9.26485 15.263C9.26485 14.9922 9.16584 14.7575 8.968 14.5599C8.77005 14.3618 8.53576 14.2627 8.2649 14.2627H1.26476C0.993741 14.2627 0.759339 14.3618 0.561441 14.5599C0.363543 14.7576 0.264648 14.9923 0.264648 15.2631V22.2632C0.264648 22.5339 0.363543 22.7685 0.561495 22.9663C0.759558 23.1639 0.993959 23.2634 1.26481 23.2634C1.53561 23.2634 1.7699 23.1639 1.96791 22.9663L3.9835 20.9505C5.09815 22.0128 6.36648 22.8307 7.78838 23.4036C9.21028 23.9767 10.6817 24.2629 12.2024 24.2629C15.0568 24.2629 17.5462 23.3957 19.6712 21.6614C21.7962 19.9272 23.1921 17.664 23.8591 14.8724C23.8695 14.8516 23.8744 14.8151 23.8744 14.7632C23.8744 14.6276 23.8248 14.5108 23.7258 14.4114C23.6268 14.313 23.5095 14.2634 23.3739 14.2634Z" fill="currentColor"/>
</g>
<defs>
<clipPath id="clip0_121_16">
<rect width="24" height="23.9999" fill="white" transform="translate(0.264648 0.263672)"/>
</clipPath>
</defs>
</svg>
