<svg width="25" height="24" viewBox="0 0 25 24" fill="none" xmlns="http://www.w3.org/2000/svg">
<path d="M7.22796 6.68H3.00396C2.33996 6.68 1.80396 7.216 1.80396 7.88V16.112C1.80396 16.776 2.33996 17.312 3.00396 17.312H7.22796L10.604 20.688C11.356 21.44 12.652 20.912 12.652 19.84V4.144C12.652 3.072 11.356 2.536 10.604 3.296L7.22796 6.68Z" fill="#3BF1FE"/>
<path d="M20.9422 13.8599L19.0819 11.9998L20.9416 10.1399C20.9599 10.1216 20.9744 10.0998 20.9843 10.0759C20.9942 10.052 20.9993 10.0263 20.9993 10.0004C20.9993 9.97448 20.9942 9.94883 20.9843 9.92489C20.9744 9.90096 20.9599 9.87921 20.9416 9.86089L19.6388 8.5578C19.6018 8.52079 19.5516 8.5 19.4993 8.5C19.4469 8.5 19.3967 8.52079 19.3597 8.5578L17.4998 10.4177L15.6401 8.5578C15.5661 8.48371 15.4351 8.48371 15.361 8.5578L14.058 9.86069C14.021 9.89773 14.0003 9.94792 14.0003 10.0002C14.0003 10.0526 14.021 10.1028 14.058 10.1398L15.9179 11.9998L14.0577 13.86C14.0207 13.8971 14 13.9473 14 13.9996C14 14.0519 14.0207 14.1021 14.0577 14.1391L15.3605 15.4421C15.3788 15.4605 15.4006 15.475 15.4245 15.485C15.4485 15.4949 15.4741 15.5 15.5001 15.5C15.526 15.5 15.5517 15.4949 15.5756 15.485C15.5996 15.475 15.6213 15.4605 15.6396 15.4421L17.4998 13.5819L19.36 15.442C19.3986 15.4805 19.4489 15.4998 19.4996 15.4998C19.5502 15.4998 19.6006 15.4805 19.6392 15.442L20.9423 14.139C20.9792 14.102 21 14.0518 21 13.9995C21 13.9471 20.9792 13.8969 20.9422 13.8599Z" fill="#3BF1FE"/>
</svg>
