<svg width="25" height="24" viewBox="0 0 25 24" fill="none" xmlns="http://www.w3.org/2000/svg">
<path d="M23.1959 12.04C23.1959 14.568 22.2999 17.016 20.6599 18.928C20.5399 19.064 20.3799 19.144 20.2039 19.152C20.0199 19.16 19.8519 19.096 19.7239 18.968L18.5879 17.832C18.3559 17.6 18.3319 17.232 18.5479 16.976C19.7079 15.576 20.3159 13.872 20.3159 12.048C20.3159 10.224 19.6999 8.52 18.5479 7.12C18.3399 6.864 18.3559 6.496 18.5879 6.264L19.7239 5.12C19.8519 4.992 20.0199 4.928 20.2039 4.936C20.3799 4.944 20.5479 5.024 20.6599 5.16C22.2919 7.064 23.1959 9.512 23.1959 12.04Z" fill="#3BF1FE"/>
<path d="M18.7 12.04C18.7 13.368 18.284 14.632 17.492 15.688C17.38 15.84 17.204 15.936 17.02 15.952C16.836 15.968 16.652 15.896 16.524 15.768L15.38 14.616C15.164 14.4 15.132 14.072 15.292 13.816C15.636 13.288 15.82 12.672 15.82 12.032C15.82 11.392 15.636 10.776 15.292 10.248C15.132 10 15.164 9.664 15.38 9.448L16.532 8.296C16.66 8.168 16.844 8.096 17.028 8.112C17.212 8.128 17.388 8.224 17.5 8.376C18.284 9.448 18.7 10.712 18.7 12.04Z" fill="#3BF1FE"/>
<path d="M7.22796 6.68H3.00396C2.33996 6.68 1.80396 7.216 1.80396 7.88V16.112C1.80396 16.776 2.33996 17.312 3.00396 17.312H7.22796L10.604 20.688C11.356 21.44 12.652 20.912 12.652 19.84V4.144C12.652 3.072 11.356 2.536 10.604 3.296L7.22796 6.68Z" fill="#3BF1FE"/>
</svg>
