<svg width="27" height="26" viewBox="0 0 27 26" fill="none" xmlns="http://www.w3.org/2000/svg">
<path d="M1.5 13C1.5 19.6275 6.87252 25 13.5 25C20.1276 25 25.5004 19.6275 25.5004 13C25.5004 6.37254 20.1276 1 13.5 1C6.87252 1 1.5 6.37252 1.5 13Z" fill="#0C0C4F" stroke="url(#paint0_linear_182_81)" stroke-width="2"/>
<path fill-rule="evenodd" clip-rule="evenodd" d="M8.06967 10.0996L8.37358 9.16062C8.43536 8.96965 8.58608 8.82105 8.77776 8.76245L9.7213 8.47229C9.8519 8.4324 9.85296 8.24814 9.72342 8.20614L8.78412 7.9022C8.5935 7.84044 8.44488 7.68971 8.38594 7.49805L8.09613 6.5545C8.05625 6.42425 7.87199 6.42283 7.82998 6.55274L7.52606 7.49169C7.46428 7.6823 7.31356 7.8309 7.12188 7.88986L6.17834 8.17966C6.04774 8.2199 6.04632 8.40381 6.17622 8.44581L7.11553 8.74973C7.30614 8.81151 7.45476 8.96259 7.5137 9.15426L7.80351 10.0974C7.84339 10.2281 8.02765 10.2295 8.06967 10.0996Z" fill="#FAFAFA"/>
<path fill-rule="evenodd" clip-rule="evenodd" d="M22.9831 9.55307C22.5943 9.1181 21.9871 8.87319 21.3969 8.77276C20.802 8.6763 20.1782 8.68525 19.5909 8.78959C18.4026 8.9906 17.3231 9.48264 16.3815 10.0896C15.8925 10.3876 15.4755 10.7323 15.0435 11.0833C14.8353 11.2609 14.6456 11.4499 14.4479 11.6363L13.9079 12.1736C13.3211 12.787 12.7427 13.3457 12.1831 13.8087C11.6212 14.2697 11.0959 14.6198 10.5782 14.8642C10.0608 15.11 9.50725 15.2545 8.7857 15.2776C8.07048 15.3028 7.2243 15.1737 6.31917 14.9607C5.40918 14.7486 4.45359 14.4462 3.38574 14.186C3.75834 15.2197 4.31942 16.1332 5.03979 16.9681C5.76861 17.7887 6.67869 18.5366 7.8478 19.0284C9.00002 19.5312 10.448 19.7117 11.8019 19.4394C13.1594 19.178 14.3506 18.5498 15.3136 17.8234C16.279 17.0895 17.06 16.2536 17.7184 15.3844C17.9002 15.1443 17.9963 15.0099 18.1278 14.8222L18.4914 14.2836C18.7441 13.9505 18.9741 13.5713 19.2242 13.2412C19.7145 12.55 20.1978 11.8596 20.7595 11.2235C21.0422 10.9009 21.3403 10.5923 21.6922 10.2958C21.8679 10.151 22.0574 10.0093 22.2675 9.88173C22.4807 9.74409 22.7058 9.63635 22.9831 9.55307Z" fill="url(#paint1_linear_182_81)"/>
<path fill-rule="evenodd" clip-rule="evenodd" d="M22.9831 9.55302C22.5653 8.49857 21.7884 7.61095 20.7458 6.95597C19.7092 6.30817 18.2698 5.97759 16.8435 6.25939C16.1388 6.39568 15.456 6.65807 14.8569 7.00747C14.2605 7.35551 13.7261 7.77444 13.2634 8.22389C13.0325 8.44937 12.8228 8.68457 12.6146 8.92112L12.0747 9.60937L11.241 10.7173C10.178 12.1427 9.03343 13.8132 7.15504 14.3082C5.31101 14.7941 4.51122 14.3638 3.38574 14.186C3.59154 14.7173 3.84644 15.2333 4.19203 15.6872C4.53117 16.1503 4.93174 16.5852 5.42977 16.958C5.68145 17.1371 5.94716 17.3138 6.24229 17.4637C6.53606 17.6085 6.85287 17.736 7.19102 17.832C7.86366 18.0164 8.62094 18.0809 9.35415 17.9818C10.0877 17.8839 10.7889 17.6514 11.4017 17.3426C12.0191 17.0369 12.557 16.6644 13.0372 16.2713C13.9919 15.4785 14.7344 14.6026 15.3616 13.7171C15.6771 13.2744 15.9635 12.8234 16.2284 12.3722L16.5401 11.8351C16.6354 11.678 16.7318 11.5201 16.8298 11.3729C17.2247 10.7818 17.6111 10.3078 18.0803 9.95206C18.543 9.58711 19.1875 9.31745 20.0485 9.25482C20.906 9.19142 21.8959 9.30852 22.9831 9.55302Z" fill="#FAFAFA"/>
<path fill-rule="evenodd" clip-rule="evenodd" d="M18.3442 18.3141C18.3442 19.0885 18.9725 19.7167 19.7469 19.7167C20.5214 19.7167 21.1487 19.0885 21.1487 18.3141C21.1487 17.5397 20.5214 16.9115 19.7469 16.9115C18.9725 16.9115 18.3442 17.5397 18.3442 18.3141Z" fill="url(#paint2_linear_182_81)"/>
<defs>
<linearGradient id="paint0_linear_182_81" x1="24.4874" y1="7.0001" x2="2.14026" y2="11.1467" gradientUnits="userSpaceOnUse">
<stop stop-color="#EC796B"/>
<stop offset="1" stop-color="#E175B1"/>
</linearGradient>
<linearGradient id="paint1_linear_182_81" x1="22.8784" y1="9.18307" x2="5.62988" y2="18.7669" gradientUnits="userSpaceOnUse">
<stop stop-color="#EC796B"/>
<stop offset="1" stop-color="#E175B1"/>
</linearGradient>
<linearGradient id="paint2_linear_182_81" x1="21.1478" y1="17.3301" x2="18.3424" y2="17.627" gradientUnits="userSpaceOnUse">
<stop stop-color="#EC796B"/>
<stop offset="1" stop-color="#E175B1"/>
</linearGradient>
</defs>
</svg>
