<svg width="25" height="25" viewBox="0 0 25 25" fill="none" xmlns="http://www.w3.org/2000/svg">
<path d="M15.1937 8.56055H8.85544C8.70369 8.56055 8.5791 8.67955 8.5791 8.83369V15.2406C8.5791 15.3916 8.7029 15.5154 8.85544 15.5154H15.1937C15.3454 15.5154 15.4684 15.3924 15.4684 15.2406V8.83369C15.4676 8.68035 15.3454 8.56055 15.1937 8.56055Z" fill="#3BF1FE"/>
<path d="M12.0254 0.0244141C5.39883 0.0244141 0.0253906 5.39626 0.0253906 12.0244C0.0253906 18.6526 5.39883 24.0244 12.0254 24.0244C18.6527 24.0244 24.0238 18.6526 24.0238 12.0244C24.0238 5.39626 18.6527 0.0244141 12.0254 0.0244141ZM12.0254 22.0198C6.50499 22.0198 2.02925 17.544 2.02925 12.0244C2.02925 6.50242 6.50499 2.02748 12.0254 2.02748C17.5466 2.02748 22.0199 6.50242 22.0199 12.0244C22.0199 17.544 17.5466 22.0198 12.0254 22.0198Z" fill="#3BF1FE"/>
</svg>
