<svg width="12" height="13" viewBox="0 0 12 13" fill="none" xmlns="http://www.w3.org/2000/svg">
<path fill-rule="evenodd" clip-rule="evenodd" d="M2.56006 0.939998C2.27571 0.675038 1.89962 0.530792 1.51101 0.537648C1.12241 0.544505 0.751642 0.701929 0.476816 0.976755C0.20199 1.25158 0.0445657 1.62235 0.0377093 2.01095C0.0308528 2.39956 0.175099 2.77565 0.440059 3.06L3.88006 6.5L0.440059 9.94C0.175099 10.2243 0.0308528 10.6004 0.0377093 10.989C0.0445657 11.3776 0.20199 11.7484 0.476816 12.0232C0.751642 12.2981 1.12241 12.4555 1.51101 12.4623C1.89962 12.4692 2.27571 12.325 2.56006 12.06L6.00006 8.62L9.44006 12.06C9.72441 12.325 10.1005 12.4692 10.4891 12.4623C10.8777 12.4555 11.2485 12.2981 11.5233 12.0232C11.7981 11.7484 11.9556 11.3776 11.9624 10.989C11.9693 10.6004 11.825 10.2243 11.5601 9.94L8.12006 6.5L11.5601 3.06C11.825 2.77565 11.9693 2.39956 11.9624 2.01095C11.9556 1.62235 11.7981 1.25158 11.5233 0.976755C11.2485 0.701929 10.8777 0.544505 10.4891 0.537648C10.1005 0.530792 9.72441 0.675038 9.44006 0.939998L6.00006 4.38L2.56006 0.939998Z" fill="white"/>
</svg>
